<?xml version="1.0" encoding="UTF-8" standalone="no" ?>
<!DOCTYPE svg PUBLIC "-//W3C//DTD SVG 1.1//EN" "http://www.w3.org/Graphics/SVG/1.1/DTD/svg11.dtd">
<svg xmlns="http://www.w3.org/2000/svg" xmlns:xlink="http://www.w3.org/1999/xlink" version="1.1" width="500" height="500" viewBox="0 0 500 500" xml:space="preserve">
<desc>Created with Fabric.js 4.6.0</desc>
<defs>
</defs>
<g transform="matrix(1 0 0 1.01 250.08 261.85)" id="kmlLvjR6eS7KbZFWkeIpM"  >
<linearGradient id="SVGID_0" gradientUnits="userSpaceOnUse" gradientTransform="matrix(1 0 0 1 -119.41 -183.51)"  x1="122.12389380530973" y1="275.992302098009" x2="125.10769038008107" y2="15.81531094756653">
<stop offset="0%" style="stop-color:#FF1818;stop-opacity: 1"/>
<stop offset="50%" style="stop-color:#7E7E7E;stop-opacity: 1"/>
<stop offset="100%" style="stop-color:#5184A6;stop-opacity: 1"/>
</linearGradient>
<path style="stroke: rgb(255,255,255); stroke-width: 1; stroke-dasharray: none; stroke-linecap: butt; stroke-dashoffset: 0; stroke-linejoin: miter; stroke-miterlimit: 4; fill: url(#SVGID_0); fill-rule: nonzero; opacity: 1;" vector-effect="non-scaling-stroke"  transform=" translate(0, 0)" d="M -82.34383 -178.80675 L -100.82818 -183.51443 L -115.55222 -177.47529 L -112.49567 -147.1159 L -82.34383 -91.66235 L -3.569109999999995 -24.51097 L -46.426249999999996 20.20953 L -93.63122 66.32839 L -112.49567 119.22989 L -119.41224 183.51442 L -50.152950000000004 151.88655 L 43.17565999999999 166.79338 L 115.68556 154.81235 L 99.53649 77.35239000000001 L 30.592389999999995 2.1971100000000092 L 8.380389999999995 -24.51095999999999 L 82.14518999999999 -88.46355999999999 C 82.14518999999999 -88.46355999999999 77.80896999999999 -79.57168999999999 87.12573999999998 -98.67670999999999 C 96.44250999999998 -117.78172999999998 119.41226999999998 -164.88363999999999 119.41226999999998 -164.88363999999999 L 115.68555999999998 -178.80675 z" stroke-linecap="round" />
</g>
<g transform="matrix(1 0 0 1 151.61 113.29)" id="zLWwi4_o-zkCUceldqI3r"  >
<path style="stroke: rgb(0,0,0); stroke-width: 1; stroke-dasharray: none; stroke-linecap: butt; stroke-dashoffset: 0; stroke-linejoin: miter; stroke-miterlimit: 4; fill: rgb(255,255,255); fill-opacity: 0; fill-rule: nonzero; opacity: 1;" vector-effect="non-scaling-stroke"  transform=" translate(0, 0)" d="M 0 0" stroke-linecap="round" />
</g>
<g transform="matrix(1 0 0 1 251.38 250)" id="wwOJo0MiiLeA582YClG98"  >
<path style="stroke: rgb(0,9,71); stroke-width: 20; stroke-dasharray: none; stroke-linecap: butt; stroke-dashoffset: 0; stroke-linejoin: miter; stroke-miterlimit: 4; fill: none; fill-rule: nonzero; opacity: 1;" vector-effect="non-scaling-stroke"  transform=" translate(-345.81, -553.29)" d="M 225.71 732.36 L 465.71000000000004 732.36 C 466.72020000000003 540.94 225.85000000000002 540.88 226.86000000000004 374.21000000000004 L 465.9100000000001 374.21000000000004 C 466.9202000000001 540.8900000000001 225.7100000000001 542.45 225.7100000000001 732.36 z" stroke-linecap="round" />
</g>
<g transform="matrix(1 0 0 1 251.38 205.1)" id="aIeU_PQihACWKXpXw41Sy"  >
<path style="stroke: rgb(0,9,71); stroke-width: 1; stroke-dasharray: none; stroke-linecap: butt; stroke-dashoffset: 0; stroke-linejoin: miter; stroke-miterlimit: 4; fill: rgb(0,9,71); fill-rule: nonzero; opacity: 1;" vector-effect="non-scaling-stroke"  transform=" translate(-348.5, -508.39)" d="M 273.75 473.54 C 336.379 497.784 356.58299999999997 495.76300000000003 423.25 472.5298 L 346.478 544.2508 z" stroke-linecap="round" />
</g>
<g transform="matrix(1 0 0 1 251.38 379.63)" id="QNDqn5YpHn0KpqjWAIyM7"  >
<path style="stroke: none; stroke-width: 1; stroke-dasharray: none; stroke-linecap: butt; stroke-dashoffset: 0; stroke-linejoin: miter; stroke-miterlimit: 4; fill: rgb(0,9,71); fill-rule: nonzero; opacity: 1;" vector-effect="non-scaling-stroke"  transform=" translate(0, 0)" d="M -113.1312 18.0565 C 0.008799999999993702 -75.8875 0.008799999999993702 -75.8875 112.12879999999998 18.0565 L 120.20999999999998 52.4015 L -120.21000000000001 52.4015 z" stroke-linecap="round" />
</g>
<g transform="matrix(1 0 0 1 254.24 358.55)" id="bMc_DDo73Xs9VpxEJOFZf"  >
<path style="stroke: rgb(255,255,255); stroke-width: 1; stroke-dasharray: none; stroke-linecap: butt; stroke-dashoffset: 0; stroke-linejoin: miter; stroke-miterlimit: 4; fill: rgb(255,255,255); fill-rule: nonzero; opacity: 1;" vector-effect="non-scaling-stroke"  transform=" translate(0, 0)" d="M -58.27639 -11.64629 L -58.27639 -8.13752 L -73.18867 7.067159999999999 L -69.0951 7.067159999999999 L -48.04247 -5.798340000000001 L -49.50446 -2.289570000000001 L -51.55124 2.3887899999999984 L -46.87288 0.34200999999999837 L -26.697440000000004 -17.20185 L -28.451830000000005 -9.89191 L -29.913820000000005 7.067150000000002 L -26.697450000000003 5.6051600000000015 L -18.510320000000004 -19.83344 L -24.511250000000004 19.990890000000004 L -24.511250000000004 19.990890000000004 C -24.785130000000002 21.808430000000005 -24.245040000000003 23.654370000000004 -23.034670000000006 25.037650000000003 L -22.896290000000004 25.195800000000002 L -20.090830000000004 21.870430000000002 L -20.090830000000004 21.870430000000002 C -19.053330000000003 20.640660000000004 -18.336530000000003 19.173080000000002 -18.004440000000002 17.598770000000002 L -9.738400000000002 -21.58782 L -9.738400000000002 -11.6463 L -9.738400000000002 12.56449 L -9.738400000000002 12.56449 C -9.738400000000002 13.727049999999998 -8.795960000000003 14.66949 -7.633400000000002 14.66949 L -7.633400000000002 14.66949 L -7.633400000000002 14.66949 C -6.017820000000002 14.66949 -4.690380000000001 13.39405 -4.625860000000001 11.77975 L -3.3623200000000013 -19.83344 L 10.18921 31.40442 L 10.18921 31.40442 C 10.725069999999999 33.43049 11.99493 35.18504 13.752089999999999 36.32719 L 16.59863 38.177440000000004 L 16.59863 38.177440000000004 C 16.66029 38.21752000000001 16.73769 38.22484000000001 16.80577 38.19702 C 16.873849999999997 38.169200000000004 16.92398 38.10978 16.93994 38.03799 L 19.267319999999998 27.564799999999998 L 19.267319999999998 27.564799999999998 C 19.61412 26.004209999999997 19.616799999999998 24.386799999999997 19.27517 22.825059999999997 L 9.559849999999999 -21.58783 L 14.82301 -8.13754 L 16.869790000000002 -9.891929999999999 L 14.823010000000002 -21.58784 L 44.062780000000004 5.605139999999999 L 44.062780000000004 0.3419799999999986 L 37.04524000000001 -9.891940000000002 C 37.04524000000001 -9.891940000000002 43.15870000000001 -6.380460000000001 52.19456000000001 -1.1904000000000021 C 61.23042000000001 3.9996599999999978 73.18866000000001 10.868299999999998 73.18866000000001 10.868299999999998 L 69.50138000000001 2.3887699999999974 L 56.15958000000001 -9.540570000000002 L 56.15958000000001 -9.540570000000002 C 42.13143000000001 -22.083600000000004 25.53725000000001 -31.417330000000003 7.533090000000016 -36.891510000000004 L 7.533090000000016 -36.891510000000004 L 7.533090000000016 -36.891510000000004 C 1.6099700000000157 -38.692440000000005 -4.720319999999985 -38.65279 -10.620419999999985 -36.777800000000006 L -22.616949999999985 -32.965430000000005 L -22.616949999999985 -32.965430000000005 C -34.40397999999998 -29.219640000000005 -45.285569999999986 -23.068870000000004 -54.57364999999999 -14.902070000000005 L -58.27639999999999 -11.646320000000006" stroke-linecap="round" />
</g>
<g transform="matrix(1.32 0 0 1.12 250 163.09)" id="ir089eDpYWbXrfL06iyJs"  >
<path style="stroke: rgb(0,9,71); stroke-width: 0; stroke-dasharray: none; stroke-linecap: butt; stroke-dashoffset: 0; stroke-linejoin: miter; stroke-miterlimit: 4; fill: rgb(0,9,71); fill-rule: nonzero; opacity: 1;" vector-effect="non-scaling-stroke"  transform=" translate(0, 0)" d="M 0 -50.30436 C 27.76801 -50.30436 50.30436 -27.768010000000004 50.30436 0 C 50.30436 27.76801 27.768010000000004 50.30436 0 50.30436 C -27.76801 50.30436 -50.30436 27.768010000000004 -50.30436 0 C -50.30436 -27.76801 -27.768010000000004 -50.30436 0 -50.30436 z" stroke-linecap="round" />
</g>
<g transform="matrix(1.51 0 0 1.23 291.05 159.87)" id="_xUinbi0drJ_DVJJ8_E3m"  >
<path style="stroke: rgb(142,180,62); stroke-width: 0; stroke-dasharray: none; stroke-linecap: butt; stroke-dashoffset: 0; stroke-linejoin: miter; stroke-miterlimit: 4; fill: rgb(98,130,152); fill-rule: nonzero; opacity: 1;" vector-effect="non-scaling-stroke"  transform=" translate(0, 0)" d="M 0 -21.58168 C 11.91309 -21.58168 21.58168 -11.913089999999999 21.58168 0 C 21.58168 11.91309 11.913089999999999 21.58168 0 21.58168 C -11.91309 21.58168 -21.58168 11.913089999999999 -21.58168 0 C -21.58168 -11.91309 -11.913089999999999 -21.58168 0 -21.58168 z" stroke-linecap="round" />
</g>
<g transform="matrix(1.39 0 0 1.55 279.94 123.9)" id="mDdqWV-tZgA9BCF_Hbqxc"  >
<path style="stroke: rgb(255,255,255); stroke-width: 1; stroke-dasharray: none; stroke-linecap: butt; stroke-dashoffset: 0; stroke-linejoin: miter; stroke-miterlimit: 4; fill: rgb(255,255,255); fill-rule: nonzero; opacity: 1;" vector-effect="non-scaling-stroke"  transform=" translate(0, 0)" d="M -16.95503 -10.7239 L -16.95503 -8.85183 L -11.42792 -6.0437199999999995 L -26.332079999999998 -1.36353 L -22.74394 1.1325700000000003 L -3.0871499999999976 1.1325700000000003 L -12.447519999999997 3.8121500000000004 L -14.475599999999996 9.24489 L -8.079339999999997 9.24489 L -8.079339999999997 10.72388 L 2.113400000000004 7.941329999999999 L 2.113400000000004 7.941329999999999 C 5.365040000000004 7.053659999999999 8.797580000000004 6.832739999999999 12.157240000000003 7.294909999999999 L 26.33207 9.244879999999998 L 15.308110000000001 -0.9814000000000007 C 14.203710000000001 -2.005890000000001 12.21456 -3.2348300000000005 10.513750000000002 -4.097440000000001 L 10.513750000000002 -4.097440000000001 C 4.327130000000002 -7.2351600000000005 -2.498429999999999 -9.22823 -9.559089999999998 -9.958730000000001 z" stroke-linecap="round" />
</g>
<g transform="matrix(1 0 0 0.17 250 449.96)" id="FQdsc2Q-1MGuKehV_KO5F"  >
<path style="stroke: rgb(40,95,194); stroke-width: 0; stroke-dasharray: none; stroke-linecap: butt; stroke-dashoffset: 0; stroke-linejoin: miter; stroke-miterlimit: 4; fill: rgb(0,9,71); fill-rule: nonzero; opacity: 1;" vector-effect="non-scaling-stroke"  transform=" translate(0, 0)" d="M -199.94791 -115.1172 C -199.94791 -161.96791 -193.34862 -199.94790999999998 -185.20797000000002 -199.94790999999998 L 185.20798 -199.94790999999998 L 185.20798 -199.94790999999998 C 193.34861999999998 -199.94790999999998 199.94791999999998 -161.96791 199.94791999999998 -115.11719999999998 L 199.94791999999998 115.11720000000001 L 199.94791999999998 115.11720000000001 C 199.94791999999998 161.96791000000002 193.34862999999999 199.94791 185.20798 199.94791 L -185.20797000000002 199.94791 L -185.20797000000002 199.94791 C -193.34861 199.94791 -199.94791 161.96791000000002 -199.94791 115.11720000000001 z" stroke-linecap="round" />
</g>
<g transform="matrix(1 0 0 0.17 254.24 47.6)" id="OIB7006jhJV4aqqfN7nel"  >
<path style="stroke: rgb(40,95,194); stroke-width: 0; stroke-dasharray: none; stroke-linecap: butt; stroke-dashoffset: 0; stroke-linejoin: miter; stroke-miterlimit: 4; fill: rgb(0,9,71); fill-rule: nonzero; opacity: 1;" vector-effect="non-scaling-stroke"  transform=" translate(0, 0)" d="M -199.94791 -115.1172 C -199.94791 -161.96791 -193.34862 -199.94790999999998 -185.20797000000002 -199.94790999999998 L 185.20798 -199.94790999999998 L 185.20798 -199.94790999999998 C 193.34861999999998 -199.94790999999998 199.94791999999998 -161.96791 199.94791999999998 -115.11719999999998 L 199.94791999999998 115.11720000000001 L 199.94791999999998 115.11720000000001 C 199.94791999999998 161.96791000000002 193.34862999999999 199.94791 185.20798 199.94791 L -185.20797000000002 199.94791 L -185.20797000000002 199.94791 C -193.34861 199.94791 -199.94791 161.96791000000002 -199.94791 115.11720000000001 z" stroke-linecap="round" />
</g>
<g transform="matrix(1.04 0 0 0.48 167.74 461.92)" id="2gGeyC7MQZb-9ksclVWbn"  >
<path style="stroke: rgb(255,255,255); stroke-width: 5; stroke-dasharray: none; stroke-linecap: butt; stroke-dashoffset: 0; stroke-linejoin: miter; stroke-miterlimit: 4; fill: rgb(0,89,0); fill-rule: nonzero; opacity: 1;" vector-effect="non-scaling-stroke"  transform=" translate(0, 0)" d="M -13.19006 40.69191 L -25.690060000000003 13.47476 L 1.665309999999998 -15.290210000000002 L -4.023390000000002 -40.69191000000001 L 20.976609999999997 -4.9320200000000085 L 1.665309999999998 13.474759999999993 L 25.69006 40.69190999999999 z" stroke-linecap="round" />
</g>
<g transform="matrix(-0.78 0 0 0.55 327.93 459.07)" id="5dxjX9Q_RCmtErSkfi0ao"  >
<path style="stroke: rgb(255,255,255); stroke-width: 5; stroke-dasharray: none; stroke-linecap: butt; stroke-dashoffset: 0; stroke-linejoin: miter; stroke-miterlimit: 4; fill: rgb(0,89,0); fill-rule: nonzero; opacity: 1;" vector-effect="non-scaling-stroke"  transform=" translate(0, 0)" d="M -13.19006 40.69191 L -25.690060000000003 13.47476 L 1.665309999999998 -15.290210000000002 L -4.023390000000002 -40.69191000000001 L 20.976609999999997 -4.9320200000000085 L 1.665309999999998 13.474759999999993 L 25.69006 40.69190999999999 z" stroke-linecap="round" />
</g>
<g transform="matrix(0.95 0 0 0.49 250 461.31)" id="Sq_VtTKeABZK8XrsoUpOp"  >
<path style="stroke: rgb(255,255,255); stroke-width: 5; stroke-dasharray: none; stroke-linecap: butt; stroke-dashoffset: 0; stroke-linejoin: miter; stroke-miterlimit: 4; fill: rgb(0,89,0); fill-rule: nonzero; opacity: 1;" vector-effect="non-scaling-stroke"  transform=" translate(0, 0)" d="M -4.62605 40.28276 L -16.01308 22.456870000000002 L 5.250990000000002 -15.699349999999995 L 6.8123200000000015 -40.282759999999996 L 16.013060000000003 -5.341169999999998 L 6.812320000000003 22.456860000000002 L 16.013060000000003 40.28275000000001 z" stroke-linecap="round" />
</g>
<g transform="matrix(1 0 0 1 244.01 47.1)" style="" id="jULPtLBkXCAPGN6YCQt00"  >
		<text xml:space="preserve" font-family="Orbitron" font-size="20" font-style="normal" font-weight="800" line-height="1.16" style="stroke: none; stroke-width: 1; stroke-dasharray: none; stroke-linecap: butt; stroke-dashoffset: 0; stroke-linejoin: miter; stroke-miterlimit: 4; fill: rgb(255,255,255); fill-rule: nonzero; opacity: 1; white-space: pre;" ><tspan x="-36.6" y="-6.83" style="white-space: pre; ">B2NH </tspan><tspan x="-82.73" y="19.39" >Travel Agency</tspan></text>
</g>
<g transform="matrix(1 0 0 1 144.51 47.1)" id="WeIAk39tpyVXJGOPZ1l84"  >
<path style="stroke: rgb(255,255,255); stroke-width: 1; stroke-dasharray: none; stroke-linecap: butt; stroke-dashoffset: 0; stroke-linejoin: miter; stroke-miterlimit: 4; fill: rgb(255,255,255); fill-opacity: 0; fill-rule: nonzero; opacity: 1;" vector-effect="non-scaling-stroke"  transform=" translate(0, 0)" d="M 22.73 33.99114 L -22.73 -33.991150000000005" stroke-linecap="round" />
</g>
<g transform="matrix(-1 0 0 1 358.25 47.1)" id="4zYH0XtC-bJLQM0D8x-85"  >
<path style="stroke: rgb(255,255,255); stroke-width: 1; stroke-dasharray: none; stroke-linecap: butt; stroke-dashoffset: 0; stroke-linejoin: miter; stroke-miterlimit: 4; fill: rgb(255,255,255); fill-opacity: 0; fill-rule: nonzero; opacity: 1;" vector-effect="non-scaling-stroke"  transform=" translate(0, 0)" d="M 22.73 33.99114 L -22.73 -33.991150000000005" stroke-linecap="round" />
</g>
</svg>